<svg xmlns="http://www.w3.org/2000/svg" viewBox="0 0 400 300" role="img" aria-hidden="true">
  <rect width="400" height="300" fill="#E8F1FB"/>
  <ellipse cx="200" cy="248" rx="150" ry="14" fill="#D3E3F5"/>

  <!-- Monitor -->
  <rect x="150" y="70" width="150" height="100" rx="8" fill="#0F2540"/>
  <rect x="160" y="80" width="130" height="80" fill="#145DA0"/>
  <path d="M170 92h60M170 104h90M170 116h70" stroke="#8FC1FF" stroke-width="4" stroke-linecap="round"/>
  <rect x="205" y="170" width="40" height="14" fill="#0F2540"/>
  <rect x="185" y="184" width="80" height="8" rx="4" fill="#0F2540"/>

  <!-- Notebook -->
  <g transform="translate(60,150)">
    <path d="M0 60l14-38h110l14 38z" fill="#145DA0"/>
    <rect x="18" y="0" width="92" height="60" rx="4" fill="#0F2540"/>
    <rect x="26" y="8" width="76" height="46" fill="#E8F1FB"/>
    <rect x="-6" y="60" width="150" height="8" rx="4" fill="#0F2540"/>
  </g>

  <!-- Acento -->
  <circle cx="320" cy="60" r="20" fill="#FF7A1A"/>
  <path d="M312 60l6 6 12-13" stroke="#fff" stroke-width="3.4" stroke-linecap="round" stroke-linejoin="round"/>
</svg>
