<svg xmlns="http://www.w3.org/2000/svg" viewBox="0 0 400 300" role="img" aria-hidden="true">
  <rect width="400" height="300" fill="#E8F1FB"/>
  <ellipse cx="200" cy="248" rx="150" ry="14" fill="#D3E3F5"/>

  <!-- Placa-mãe -->
  <rect x="70" y="60" width="220" height="150" rx="10" fill="#0F2540"/>
  <rect x="90" y="80" width="70" height="40" fill="#145DA0"/>
  <g fill="#8FC1FF">
    <rect x="90" y="80" width="70" height="40"/>
  </g>
  <path d="M96 86h58M96 96h58M96 106h58M96 114h58" stroke="#0F2540" stroke-width="2"/>

  <!-- CPU -->
  <rect x="180" y="80" width="46" height="46" fill="#FF7A1A"/>
  <path d="M180 90h-8M180 100h-8M180 110h-8M180 120h-8M226 90h8M226 100h8M226 110h8M226 120h8M190 80v-8M200 80v-8M210 80v-8M220 80v-8M190 126v8M200 126v8M210 126v8M220 126v8" stroke="#0F2540" stroke-width="3" stroke-linecap="round"/>

  <!-- Memórias RAM -->
  <rect x="240" y="80" width="16" height="90" rx="3" fill="#145DA0"/>
  <rect x="262" y="80" width="16" height="90" rx="3" fill="#145DA0"/>

  <!-- Slots -->
  <rect x="90" y="150" width="180" height="14" rx="3" fill="#145DA0"/>
  <rect x="90" y="172" width="180" height="14" rx="3" fill="#145DA0"/>
</svg>
