<svg xmlns="http://www.w3.org/2000/svg" viewBox="0 0 400 300" role="img" aria-hidden="true">
  <rect width="400" height="300" fill="#E8F1FB"/>
  <ellipse cx="200" cy="248" rx="150" ry="14" fill="#D3E3F5"/>

  <!-- Caixa de som -->
  <g transform="translate(70,70)">
    <rect x="0" y="0" width="70" height="140" rx="12" fill="#0F2540"/>
    <circle cx="35" cy="34" r="20" fill="#145DA0"/>
    <circle cx="35" cy="34" r="9" fill="#8FC1FF"/>
    <circle cx="35" cy="96" r="26" fill="#145DA0"/>
    <circle cx="35" cy="96" r="12" fill="#8FC1FF"/>
  </g>

  <!-- Ondas de som -->
  <path d="M160 100q14 30 0 60" fill="none" stroke="#FF7A1A" stroke-width="5" stroke-linecap="round"/>
  <path d="M175 88q22 42 0 84" fill="none" stroke="#FF7A1A" stroke-width="5" stroke-linecap="round"/>

  <!-- Roteador -->
  <g transform="translate(230,110)">
    <rect x="0" y="20" width="110" height="34" rx="8" fill="#145DA0"/>
    <path d="M20 20v-22M45 20v-30M70 20v-30M95 20v-22" stroke="#0F2540" stroke-width="5" stroke-linecap="round"/>
    <circle cx="90" cy="37" r="4" fill="#8FC1FF"/>
    <circle cx="100" cy="37" r="4" fill="#8FC1FF"/>
  </g>
</svg>
