<svg xmlns="http://www.w3.org/2000/svg" viewBox="0 0 400 300" role="img" aria-hidden="true">
  <rect width="400" height="300" fill="#E8F1FB"/>
  <ellipse cx="200" cy="248" rx="150" ry="14" fill="#D3E3F5"/>

  <!-- Teclado -->
  <rect x="60" y="140" width="200" height="80" rx="10" fill="#145DA0"/>
  <g fill="#8FC1FF">
    <rect x="74" y="154" width="18" height="14" rx="3"/>
    <rect x="98" y="154" width="18" height="14" rx="3"/>
    <rect x="122" y="154" width="18" height="14" rx="3"/>
    <rect x="146" y="154" width="18" height="14" rx="3"/>
    <rect x="170" y="154" width="18" height="14" rx="3"/>
    <rect x="194" y="154" width="18" height="14" rx="3"/>
    <rect x="218" y="154" width="18" height="14" rx="3"/>
    <rect x="74" y="174" width="18" height="14" rx="3"/>
    <rect x="98" y="174" width="18" height="14" rx="3"/>
    <rect x="122" y="174" width="18" height="14" rx="3"/>
    <rect x="146" y="174" width="18" height="14" rx="3"/>
    <rect x="170" y="174" width="18" height="14" rx="3"/>
    <rect x="194" y="174" width="18" height="14" rx="3"/>
    <rect x="218" y="174" width="18" height="14" rx="3"/>
    <rect x="86" y="194" width="140" height="14" rx="3"/>
  </g>

  <!-- Mouse -->
  <g transform="translate(280,120)">
    <path d="M20 0c16 0 28 14 28 32v30c0 18-12 32-28 32S-8 80-8 62V32C-8 14 4 0 20 0z" fill="#0F2540"/>
    <rect x="16" y="6" width="8" height="26" rx="4" fill="#8FC1FF"/>
  </g>

  <!-- Fone -->
  <g transform="translate(70,60)">
    <path d="M0 30a30 30 0 0 1 60 0" fill="none" stroke="#0F2540" stroke-width="8" stroke-linecap="round"/>
    <rect x="-8" y="26" width="16" height="26" rx="6" fill="#FF7A1A"/>
    <rect x="52" y="26" width="16" height="26" rx="6" fill="#FF7A1A"/>
  </g>
</svg>
