<svg xmlns="http://www.w3.org/2000/svg" viewBox="0 0 400 300" role="img" aria-hidden="true">
  <rect width="400" height="300" fill="#E8F1FB"/>
  <ellipse cx="200" cy="248" rx="150" ry="14" fill="#D3E3F5"/>

  <!-- TV Box -->
  <g transform="translate(70,140)">
    <rect x="0" y="0" width="70" height="46" rx="8" fill="#0F2540"/>
    <circle cx="58" cy="10" r="4" fill="#FF7A1A"/>
  </g>
  <!-- Controle remoto -->
  <g transform="translate(150,110)">
    <rect x="0" y="0" width="26" height="76" rx="8" fill="#145DA0"/>
    <circle cx="13" cy="16" r="6" fill="#8FC1FF"/>
    <rect x="6" y="30" width="14" height="10" rx="2" fill="#8FC1FF"/>
    <rect x="6" y="46" width="14" height="10" rx="2" fill="#8FC1FF"/>
  </g>

  <!-- Câmera IP -->
  <g transform="translate(220,90)">
    <circle cx="30" cy="30" r="30" fill="#0F2540"/>
    <circle cx="30" cy="30" r="16" fill="#145DA0"/>
    <circle cx="30" cy="30" r="7" fill="#8FC1FF"/>
    <rect x="20" y="56" width="20" height="14" fill="#0F2540"/>
  </g>

  <!-- Mini ventilador -->
  <g transform="translate(300,140)">
    <circle cx="30" cy="24" r="24" fill="none" stroke="#145DA0" stroke-width="4"/>
    <path d="M30 24l0 -16M30 24l14 8M30 24l-14 8" stroke="#FF7A1A" stroke-width="4" stroke-linecap="round"/>
    <rect x="24" y="48" width="12" height="18" fill="#145DA0"/>
  </g>
</svg>
