<svg xmlns="http://www.w3.org/2000/svg" width="110" height="110" viewBox="0 0 110 110">
<g fill="none" stroke="#B96570" stroke-width="1" opacity=".16">
  <g transform="translate(20,22)">
    <ellipse cx="0" cy="-6" rx="3" ry="6"/>
    <ellipse cx="0" cy="-6" rx="3" ry="6" transform="rotate(72)"/>
    <ellipse cx="0" cy="-6" rx="3" ry="6" transform="rotate(144)"/>
    <ellipse cx="0" cy="-6" rx="3" ry="6" transform="rotate(216)"/>
    <ellipse cx="0" cy="-6" rx="3" ry="6" transform="rotate(288)"/>
  </g>
  <g transform="translate(80,70)">
    <ellipse cx="0" cy="-5" rx="2.4" ry="5"/>
    <ellipse cx="0" cy="-5" rx="2.4" ry="5" transform="rotate(72)"/>
    <ellipse cx="0" cy="-5" rx="2.4" ry="5" transform="rotate(144)"/>
    <ellipse cx="0" cy="-5" rx="2.4" ry="5" transform="rotate(216)"/>
    <ellipse cx="0" cy="-5" rx="2.4" ry="5" transform="rotate(288)"/>
  </g>
</g>
<g fill="none" stroke="#4F6B54" stroke-width="1" opacity=".14">
  <path d="M55 10c8 4 8 14 0 20"/>
  <path d="M10 85c8-6 20-6 26 2"/>
</g>
<circle cx="20" cy="22" r="1.6" fill="#D9A441" opacity=".2"/>
<circle cx="80" cy="70" r="1.6" fill="#D9A441" opacity=".2"/>
</svg>
