<svg xmlns="http://www.w3.org/2000/svg" viewBox="0 0 200 200" role="img" aria-labelledby="logoTitle">
<title id="logoTitle">Confeitaria Bom Gosto — Doces e Salgados</title>
<defs>
<path id="arcTop" d="M 38 78 A 62 62 0 0 1 162 78" fill="none"/>
</defs>

<circle cx="100" cy="100" r="98" fill="#FFFDF8"/>
<circle cx="100" cy="100" r="94" fill="none" stroke="#C9784F" stroke-width="2"/>

<text font-family="Georgia, 'Times New Roman', serif" font-style="italic" font-size="20" fill="#8C4A2B" text-anchor="middle">
  <textPath href="#arcTop" startOffset="50%">Confeitaria</textPath>
</text>

<text x="100" y="98" font-family="Georgia, 'Times New Roman', serif" font-weight="700" font-size="27" fill="#7A2E2E" text-anchor="middle">Bom Gosto</text>

<g transform="translate(100,148)">
  <ellipse cx="0" cy="30" rx="46" ry="7" fill="#B5633A" opacity=".35"/>
  <rect x="-40" y="14" width="80" height="18" rx="3" fill="#C9784F"/>
  <rect x="-34" y="0" width="68" height="16" rx="3" fill="#E3A06E"/>
  <rect x="-26" y="-12" width="52" height="14" rx="3" fill="#F0BE8D"/>
  <circle cx="-14" cy="-16" r="4" fill="#7A2E2E"/>
  <circle cx="0" cy="-19" r="4" fill="#7A2E2E"/>
  <circle cx="14" cy="-16" r="4" fill="#7A2E2E"/>
  <path d="M-40 14c0-4 3-6 3-10M-20 14c0-4 3-6 3-10M0 14c0-4 3-6 3-10M20 14c0-4 3-6 3-10M38 14c0-4 3-6 3-10"
        stroke="#8C4A2B" stroke-width="2" fill="none" stroke-linecap="round"/>
</g>

<g>
  <path d="M30 118 L54 108 L54 150 L30 160 Z" fill="#E3A335"/>
  <path d="M170 118 L146 108 L146 150 L170 160 Z" fill="#E3A335"/>
  <path d="M54 108 Q100 128 146 108 L146 128 Q100 148 54 128 Z" fill="#F0C34A"/>
  <text x="100" y="123" font-family="Georgia, serif" font-size="12" fill="#FFFDF8" text-anchor="middle" font-weight="600">Doces e Salgados</text>
</g>
</svg>
