<svg xmlns="http://www.w3.org/2000/svg" viewBox="0 0 120 120" role="img" aria-labelledby="t4">
<title id="t4">Pavê artesanal</title>
<circle cx="60" cy="60" r="58" fill="#FBE9D9"/>
<path d="M42 40h36l-4 46a4 4 0 0 1-4 4H50a4 4 0 0 1-4-4z" fill="#F0D7C4" opacity=".6"/>
<rect x="42" y="40" width="36" height="8" fill="#C9784F"/>
<rect x="42" y="52" width="36" height="8" fill="#F0D7C4"/>
<rect x="42" y="64" width="36" height="8" fill="#8C4A2B"/>
<rect x="42" y="76" width="36" height="8" fill="#F0D7C4"/>
<path d="M42 40h36l-4 46a4 4 0 0 1-4 4H50a4 4 0 0 1-4-4z" fill="none" stroke="#B5633A" stroke-width="3"/>
<circle cx="60" cy="34" r="5" fill="#D8455B"/>
</svg>
