<svg xmlns="http://www.w3.org/2000/svg" viewBox="0 0 120 120" role="img" aria-labelledby="t3">
<title id="t3">Arranjos</title>
<circle cx="60" cy="60" r="58" fill="#F3EFE1"/>
<path d="M44 60l-6 34h44l-6-34z" fill="#CFE0D1"/>
<path d="M44 60h32l3 8H41z" fill="#B7CDBA"/>
<g transform="translate(60,38)">
  <ellipse rx="8" ry="15" fill="#D98A93"/>
  <ellipse rx="8" ry="15" transform="rotate(60)" fill="#E3A3AB"/>
  <ellipse rx="8" ry="15" transform="rotate(120)" fill="#D98A93"/>
  <ellipse rx="8" ry="15" transform="rotate(180)" fill="#E3A3AB"/>
  <ellipse rx="8" ry="15" transform="rotate(240)" fill="#D98A93"/>
  <ellipse rx="8" ry="15" transform="rotate(300)" fill="#E3A3AB"/>
  <circle r="7" fill="#F4C868"/>
</g>
<g transform="translate(38,48)">
  <ellipse rx="5" ry="9" fill="#F6DADD"/>
  <ellipse rx="5" ry="9" transform="rotate(90)" fill="#EFC2C7"/>
  <circle r="4" fill="#F4C868"/>
</g>
<g transform="translate(82,48)">
  <ellipse rx="5" ry="9" fill="#F6DADD"/>
  <ellipse rx="5" ry="9" transform="rotate(90)" fill="#EFC2C7"/>
  <circle r="4" fill="#F4C868"/>
</g>
<path d="M50 60c-2-8 0-14 4-18M70 60c2-8 0-14-4-18" stroke="#6B8F71" stroke-width="3" fill="none" stroke-linecap="round"/>
</svg>
