<svg xmlns="http://www.w3.org/2000/svg" viewBox="0 0 120 120" role="img" aria-labelledby="t1">
<title id="t1">Bolo artesanal</title>
<circle cx="60" cy="60" r="58" fill="#F7E6D7"/>
<rect x="28" y="66" width="64" height="26" rx="4" fill="#C9784F"/>
<rect x="32" y="50" width="56" height="20" rx="4" fill="#E3A06E"/>
<rect x="38" y="36" width="44" height="18" rx="4" fill="#F0BE8D"/>
<path d="M38 36c0-6 4-10 4-16 0 6 4 8 4 14 0-6 4-9 4-15 0 6 4 8 4 15 0-7 4-10 4-16 0 6 4 9 4 15 0-6 4-9 4-15 0 6 4 10 4 16" stroke="#8C4A2B" stroke-width="3" fill="none" stroke-linecap="round"/>
<circle cx="46" cy="30" r="3" fill="#D8455B"/>
<circle cx="60" cy="26" r="3" fill="#D8455B"/>
<circle cx="74" cy="30" r="3" fill="#D8455B"/>
<rect x="28" y="66" width="64" height="6" fill="#B5633A" opacity=".5"/>
<rect x="32" y="50" width="56" height="6" fill="#D08A54" opacity=".5"/>
</svg>
