<svg xmlns="http://www.w3.org/2000/svg" viewBox="0 0 120 120" role="img" aria-labelledby="t10">
<title id="t10">Cesta de café</title>
<circle cx="60" cy="60" r="58" fill="#F3EFE1"/>
<path d="M32 58h56l-5 30a6 6 0 0 1-6 5H43a6 6 0 0 1-6-5z" fill="#C9A36A"/>
<path d="M32 58h56l-2 9H34z" fill="#B98C51" opacity=".6"/>
<path d="M38 58c2-13 8-20 22-20s20 7 22 20" stroke="#8C6A3E" stroke-width="4" fill="none" stroke-linecap="round"/>
<path d="M48 42a10 8 0 0 1 20 0" fill="#fff"/>
<rect x="46" y="42" width="24" height="14" rx="3" fill="#fff"/>
<path d="M70 45c5 0 8 3 8 6s-3 6-8 6" stroke="#C9A36A" stroke-width="3" fill="none"/>
<g transform="translate(84,44)">
  <ellipse rx="5" ry="9" fill="#D98A93"/>
  <ellipse rx="5" ry="9" transform="rotate(90)" fill="#E3A3AB"/>
  <circle r="4" fill="#F4C868"/>
</g>
</svg>
