<svg xmlns="http://www.w3.org/2000/svg" viewBox="0 0 120 120" role="img" aria-labelledby="t2">
<title id="t2">Cestas-presente</title>
<circle cx="60" cy="60" r="58" fill="#F3EFE1"/>
<path d="M34 62h52l-6 32a6 6 0 0 1-6 5H46a6 6 0 0 1-6-5z" fill="#C9A36A"/>
<path d="M34 62h52l-2 10H36z" fill="#B98C51" opacity=".6"/>
<path d="M40 62c2-14 8-22 20-22s18 8 20 22" stroke="#8C6A3E" stroke-width="4" fill="none" stroke-linecap="round"/>
<circle cx="48" cy="76" r="6" fill="#8C4A2B"/>
<circle cx="62" cy="82" r="6" fill="#8C4A2B"/>
<circle cx="74" cy="74" r="6" fill="#8C4A2B"/>
<g transform="translate(48,36)">
  <ellipse rx="7" ry="13" fill="#D98A93"/>
  <ellipse rx="7" ry="13" transform="rotate(72)" fill="#E3A3AB"/>
  <ellipse rx="7" ry="13" transform="rotate(144)" fill="#D98A93"/>
  <ellipse rx="7" ry="13" transform="rotate(216)" fill="#E3A3AB"/>
  <ellipse rx="7" ry="13" transform="rotate(288)" fill="#D98A93"/>
  <circle r="6" fill="#F4C868"/>
</g>
<g transform="translate(70,40)">
  <ellipse rx="6" ry="11" fill="#B7CDBA"/>
  <ellipse rx="6" ry="11" transform="rotate(72)" fill="#CFE0D1"/>
  <ellipse rx="6" ry="11" transform="rotate(144)" fill="#B7CDBA"/>
  <ellipse rx="6" ry="11" transform="rotate(216)" fill="#CFE0D1"/>
  <ellipse rx="6" ry="11" transform="rotate(288)" fill="#B7CDBA"/>
  <circle r="5" fill="#F4C868"/>
</g>
<path d="M60 62v-8M52 58l8-4 8 4" stroke="#D9A441" stroke-width="4" fill="none" stroke-linecap="round" stroke-linejoin="round"/>
</svg>
