<svg xmlns="http://www.w3.org/2000/svg" viewBox="0 0 32 32" fill="currentColor" aria-hidden="true">
<path d="M16.02 3C9.4 3 4 8.36 4 15c0 2.36.68 4.56 1.86 6.42L4 29l7.77-1.83A11.9 11.9 0 0 0 16.02 27C22.63 27 28 21.64 28 15S22.63 3 16.02 3zm0 21.7c-1.95 0-3.77-.55-5.32-1.5l-.38-.23-4.6 1.08 1.1-4.5-.25-.39A9.6 9.6 0 0 1 6.33 15c0-5.34 4.35-9.68 9.69-9.68S25.7 9.66 25.7 15s-4.35 9.7-9.68 9.7z"/>
<path d="M21.2 17.34c-.29-.14-1.7-.84-1.96-.93-.26-.1-.46-.14-.65.14-.19.29-.75.93-.92 1.12-.17.19-.34.21-.63.07-.29-.14-1.22-.45-2.33-1.43-.86-.77-1.44-1.71-1.61-2-.17-.29-.02-.45.13-.6.13-.13.29-.34.43-.5.14-.17.19-.29.29-.48.1-.19.05-.36-.02-.5-.07-.14-.65-1.57-.89-2.15-.23-.56-.47-.48-.65-.49-.17-.01-.36-.01-.55-.01-.19 0-.5.07-.76.36-.26.29-1 1-1 2.42 0 1.43 1.02 2.81 1.16 3 .14.19 2.01 3.07 4.88 4.3.68.29 1.21.47 1.63.6.68.22 1.31.19 1.8.11.55-.08 1.7-.7 1.94-1.36.24-.67.24-1.24.17-1.36-.07-.12-.26-.19-.55-.33z"/>
</svg>
