<svg xmlns="http://www.w3.org/2000/svg" viewBox="0 0 120 120" role="img" aria-labelledby="t4">
<title id="t4">Flores para ocasiões</title>
<circle cx="60" cy="60" r="58" fill="#F3EFE1"/>
<rect x="34" y="54" width="52" height="38" rx="4" fill="#E3A3AB"/>
<rect x="34" y="54" width="52" height="12" fill="#D98A93"/>
<rect x="56" y="54" width="8" height="38" fill="#F4C868"/>
<path d="M60 54c-10-2-14-14-4-18 4 6 4 12 4 18zM60 54c10-2 14-14 4-18-4 6-4 12-4 18z" fill="#F4C868"/>
<g transform="translate(60,32)">
  <ellipse rx="6" ry="11" fill="#D98A93"/>
  <ellipse rx="6" ry="11" transform="rotate(72)" fill="#E3A3AB"/>
  <ellipse rx="6" ry="11" transform="rotate(144)" fill="#D98A93"/>
  <ellipse rx="6" ry="11" transform="rotate(216)" fill="#E3A3AB"/>
  <ellipse rx="6" ry="11" transform="rotate(288)" fill="#D98A93"/>
  <circle r="5" fill="#F4C868"/>
</g>
</svg>
