<svg xmlns="http://www.w3.org/2000/svg" viewBox="0 0 120 120" role="img" aria-labelledby="t6">
<title id="t6">Rosas coloridas</title>
<circle cx="60" cy="60" r="58" fill="#F3EFE1"/>
<path d="M60 100l-16-38 16-14 16 14z" fill="#E9DCC3"/>
<path d="M60 100l-9-40h18z" fill="#D9C8A3"/>
<g transform="translate(42,44)">
  <ellipse rx="7" ry="13" fill="#F4C868"/>
  <ellipse rx="7" ry="13" transform="rotate(72)" fill="#F7D98E"/>
  <ellipse rx="7" ry="13" transform="rotate(144)" fill="#F4C868"/>
  <ellipse rx="7" ry="13" transform="rotate(216)" fill="#F7D98E"/>
  <ellipse rx="7" ry="13" transform="rotate(288)" fill="#F4C868"/>
  <circle r="6" fill="#D9A441"/>
</g>
<g transform="translate(66,34)">
  <ellipse rx="6" ry="11" fill="#D98A93"/>
  <ellipse rx="6" ry="11" transform="rotate(72)" fill="#E3A3AB"/>
  <ellipse rx="6" ry="11" transform="rotate(144)" fill="#D98A93"/>
  <ellipse rx="6" ry="11" transform="rotate(216)" fill="#E3A3AB"/>
  <ellipse rx="6" ry="11" transform="rotate(288)" fill="#D98A93"/>
  <circle r="5" fill="#8C2530"/>
</g>
<g transform="translate(80,54)">
  <ellipse rx="5" ry="9" fill="#B7CDBA"/>
  <ellipse rx="5" ry="9" transform="rotate(90)" fill="#CFE0D1"/>
  <circle r="4" fill="#4F6B54"/>
</g>
<path d="M46 50c-4-6-4-12-2-16" stroke="#6B8F71" stroke-width="3" fill="none" stroke-linecap="round"/>
</svg>
